/* XPM */
static char *_530645945899[] = {
/* columns rows colors chars-per-pixel */
"64 64 185 2 ",
"   c #746F63",
".  c #746F64",
"X  c #757063",
"o  c #747064",
"O  c #757064",
"+  c #757165",
"@  c #767064",
"#  c #767165",
"$  c #777266",
"%  c #777267",
"&  c #787266",
"*  c #787366",
"=  c #787367",
"-  c #797367",
";  c #797467",
":  c #797468",
">  c #797568",
",  c #7A7568",
"<  c #7A7469",
"1  c #7B7569",
"2  c #7A7668",
"3  c #7B7668",
"4  c #7B766A",
"5  c #7C766A",
"6  c #7D766A",
"7  c #7C776A",
"8  c #7D776B",
"9  c #7E776B",
"0  c #7E786B",
"q  c #7F796B",
"w  c #7C786C",
"e  c #7D786C",
"r  c #7D786D",
"t  c #7F796C",
"y  c #7F796D",
"u  c #807A6C",
"i  c #807A6D",
"p  c #807B6E",
"a  c #817B6E",
"s  c #827B6E",
"d  c #827B6F",
"f  c #817C6E",
"g  c #827C6E",
"h  c #827D6E",
"j  c #827C6F",
"k  c #837E70",
"l  c #837E72",
"z  c #837F73",
"x  c #857E71",
"c  c #847F71",
"v  c #857F71",
"b  c #847E73",
"n  c #858073",
"m  c #868072",
"M  c #868073",
"N  c #878173",
"B  c #878273",
"V  c #878174",
"C  c #898274",
"Z  c #888375",
"A  c #898375",
"S  c #8A8375",
"D  c #898376",
"F  c #8A8376",
"G  c #8B8376",
"H  c #8A8475",
"J  c #8A8575",
"K  c #898476",
"L  c #8A8476",
"P  c #8B8476",
"I  c #8A8477",
"U  c #8B8578",
"Y  c #89857A",
"T  c #89857B",
"R  c #8A867B",
"E  c #8C8678",
"W  c #8C8679",
"Q  c #8D8779",
"!  c #8D877A",
"~  c #8F897B",
"^  c #908A7D",
"/  c #918B7E",
"(  c #928C7F",
")  c #8F8B80",
"_  c #918D82",
"`  c #908C83",
"'  c #959083",
"]  c #959186",
"[  c #989286",
"{  c #97938A",
"}  c #9A9589",
"|  c #9B9589",
" . c #99958B",
".. c #9B978D",
"X. c #9D988C",
"o. c #9D988D",
"O. c #9C998F",
"+. c #9F9B92",
"@. c #A29E92",
"#. c #A09C94",
"$. c #A29F95",
"%. c #A49F95",
"&. c #A7A298",
"*. c #A8A499",
"=. c #AAA59B",
"-. c #ABA79F",
";. c #ACA89E",
":. c #AAA7A0",
">. c #ABA8A1",
",. c #ADA9A1",
"<. c #AEAAA0",
"1. c #AFABA3",
"2. c #B0ACA2",
"3. c #B1ADA4",
"4. c #B0ADA5",
"5. c #B2AEA5",
"6. c #B2AEA6",
"7. c #B2AFA9",
"8. c #B7B4AD",
"9. c #B8B4AC",
"0. c #B8B5AC",
"q. c #B9B5AD",
"w. c #BBB7AF",
"e. c #BAB7B0",
"r. c #BCB9B1",
"t. c #BCB9B2",
"y. c #BDBAB2",
"u. c #BEBBB3",
"i. c #BEBBB4",
"p. c #BFBBB4",
"a. c #C1BDB6",
"s. c #C1BEB7",
"d. c #C3C0BB",
"f. c #C7C4BD",
"g. c #C7C4BF",
"h. c #C9C6C0",
"j. c #C9C7C1",
"k. c #CCC9C3",
"l. c #CCC9C4",
"z. c #CDCAC5",
"x. c #CDCBC5",
"c. c #CECBC6",
"v. c #CECCC6",
"b. c #D2CFCA",
"n. c #D2D0CB",
"m. c #D2D0CC",
"M. c #D3D1CD",
"N. c #DAD8D4",
"B. c #DAD9D5",
"V. c #DBD9D5",
"C. c #DBDAD7",
"Z. c #DCDAD6",
"A. c #DFDDDA",
"S. c #DFDEDA",
"D. c #E0DEDA",
"F. c #E4E2DF",
"G. c #E4E3E0",
"H. c #E5E4E1",
"J. c #E8E7E5",
"K. c #E9E8E6",
"L. c #EAE9E6",
"P. c #EAE9E7",
"I. c #ECEBE8",
"U. c #EDECEA",
"Y. c #EDECEB",
"T. c #EEEDEB",
"R. c #EEEEEC",
"E. c #EFEEEC",
"W. c #F1F1F0",
"Q. c #F3F2F0",
"!. c #F6F5F4",
"~. c #F7F6F5",
"^. c #F9F8F7",
"/. c #F9F9F8",
"(. c #F9F9F9",
"). c #FBFAFA",
"_. c #FBFBFA",
"`. c #FBFBFB",
"'. c gray99",
"]. c #FDFDFC",
"[. c #FDFDFD",
"{. c #FEFEFD",
"}. c #FFFFFE",
"|. c white",
" X c None",
/* pixels */
" X X X X X X X X X X X X X X X X X X X X X X X X X X X X X X X X X X X X X X X X X X X X X X X X X X X X X X X X X X X X X X X X",
" X X X X X X X X X X X X X X X X X X X X X X X X X X X X XL L D D L L  X X X X X X X X X X X X X X X X X X X X X X X X X X X X X",
" X X X X X X X X X X X X X X X X X X X X X X X XL L L L L L L L P L L L L L P L  X X X X X X X X X X X X X X X X X X X X X X X X",
" X X X X X X X X X X X X X X X X X X X X XL L L L L L L L L L L L L L L L L L L L L L  X X X X X X X X X X X X X X X X X X X X X",
" X X X X X X X X X X X X X X X X X XD L L L L L L L L L L L L L L L L L L L L L L L L L L L  X X X X X X X X X X X X X X X X X X",
" X X X X X X X X X X X X X X X X XL L L L L L L L L L L L L L L L L L L L L L L L L L L L L L  X X X X X X X X X X X X X X X X X",
" X X X X X X X X X X X X X X XL L L L L L L L L L L L L L L L L L L L L L L L L L L L L L L L L L  X X X X X X X X X X X X X X X",
" X X X X X X X X X X X X X XL L L L L L L L L L L L L L L L L L L L L L L L L L L L L L L L L L L L  X X X X X X X X X X X X X X",
" X X X X X X X X X X X XD L L L L L L L L L L L L L L L L L L L L L L L L L L L L L L L L L L L L L L L  X X X X X X X X X X X X",
" X X X X X X X X X X XL L L L L L L L L L L L L L L L L L L L L L L L L L L L L L L L L L L L L L L L L L  X X X X X X X X X X X",
" X X X X X X X X X XL L L L L L L L L L L L L L L L L L L L L L L L L L L L L L L L L L L L L L L L L L L L  X X X X X X X X X X",
" X X X X X X X X XL L L L L L L L L L L L L L L L L L L L L L L L L L L L L L L L L L L L L L L L L L L L L L  X X X X X X X X X",
" X X X X X X X XD L L L L L L L L L L L L L L L L L L L L L L L L L L L L L L L L L L L L L L L L L L L L L L L  X X X X X X X X",
" X X X X X X X XL L L L L L L L L L L L L L L L L L L L L L L L L L L L L L L L L L L L L L L L L L L L L L L L  X X X X X X X X",
" X X X X X X XL L L L L L L L L L L L L L L L L L L L L L L L L L L L L L L L L L L L L L L L L L L L L L L L L L  X X X X X X X",
" X X X X X XL L L L L L L L L L L L L L L L L L L L L L L L L L L L L L L L L L L L L L L L L L L L L L L L L L L L  X X X X X X",
" X X X X X XL L L L L L L L L L L L L L L L L L L L L L L L L L L L L L L L L L L L L L L L L L L L L L L L L L L L  X X X X X X",
" X X X X XL L L L L L L L L L L L L L L L L L L L L L L L L L L L L L L L L L L L L L L L L L L L L L L L L L L L L L  X X X X X",
" X X X XD L L L L L L L L L L L L L L L L L L L L L L L L L L L L L L L L L L L L L L L L L L L L L L L L L L L L L L L  X X X X",
" X X X XL L L L L L L L L L L L L L L L L L L L L L L L L L L L L L L L L L L L L L L L L L L L L L L L L L L L L L L L  X X X X",
" X X X XL L L L D D E @.,.w.u.s.w.w.5.*.[ U L L L L L L L L L L L L L L L L L L L L P  .*.7.w.u.a.u.w.2.&.~ L L L L L L  X X X X",
" X X XL L L L L D w.`.[.[.[.[.[.[.[.[.[.[.[.K.k.;.~ L L L L L L L L L L L L L ,.c.I.[.[.[.[.[.[.[.[.[.[.[.`.a.L L L L L D  X X X",
" X X XL L L L L L e.[.[.[.[.[.[.[.[.[.[.[.[.[.[.[.E.o.L L L L L L L L L L ] I.[.[.[.[.[.[.[.[.[.[.[.[.[.[.`.+.V L L L L L  X X X",
" X X XL L L L L L D f.[.[.[.[.[.[.[.[.[.[.[.[.[.[.[.E.( L L L L L L L L ~ H.[.[.[.[.[.[.[.[.[.[.[.[.[.[.'.&.  ; L L L L L  X X X",
" X XL L L L L L L L n n.[.[.[.[.[.[.[.[.[.[.[.[.[.[.[.F.E L L L L L L L b.[.[.[.[.[.[.[.[.[.[.[.[.[.[.[.;.      j L L L L L  X X",
" X XL L L L L L L L L b I.[.[.[.[.[.[.[.[.[.[.[.[.[.[.[.f.L L L L L L a.[.[.[.[.[.[.[.[.[.[.[.[.[.[.[.c..       @ D L L L L  X X",
" X XL L L L L L L L L L ` `.[.[.[.[.[.[.[.[.[.[.[.[.[.[.[.2.L L L L *.[.[.[.[.[.[.[.[.[.[.[.[.[.[.[.E.e           7 L L L L  X X",
" X XL L L L L L L L L L k ,.[.[.[.[.[.[.[.[.[.[.[.[.[.[.[.`.o.L L | ^.[.[.[.[.[.[.[.[.[.[.[.[.[.[.`.]             X b L L L  X X",
" X XL L L L L L L L L L L , 7.[.[.[.[.[.[.[.[.[.[.[.[.[.[.[.E.( / T.[.[.[.[.[.[.[.[.[.[.[.[.[.[.Q. .                & D L L  X X",
" XL L L L L L L L L L L L n X { E.[.[.[.[.[.[.[.[.[.[.[.[.[.[.A.B.[.[.[.[.[.[.[.[.[.[.[.[.[.[.n.V .                   a L L L  X",
" XL L L L L L L L L L L L L a   = :.W.[.[.[.[.[.[.[.[.[.[.[.[.[.[.[.[.[.[.[.[.[.[.[.[.[.[.H.)                         . N L L  X",
" XL L L L L L L L L L L L L D & . . B.[.[.[.[.[.[.[.[.[.[.[.[.[.[.[.[.[.[.[.[.[.[.[.[.[.[.v.                          X & L L  X",
" XL L L L L L L L L L L L L L b X @ Z.[.[.[.[.[.[.[.[.[.[.[.[.[.[.[.[.[.[.[.[.[.[.[.[.[.[.v.                              j D  X",
" XL L L L L L L L L L L L L L L 7 @ B.[.[.[.[.[.[.[.[.[.[.[.[.[.[.[.[.[.[.[.[.[.[.[.[.[.[.c.                              @ N  X",
" XL L L L L L L L L L L L L L L V @ B.[.[.[.[.[.[.[.E.[.[.[.[.[.[.[.[.[.[.H.[.[.[.[.[.[.[.c..                               b  X",
" X XL L L L L L L L L L L L L L L j Z.[.[.[.[.[.[.[.U ^.[.[.[.[.[.[.[.[.K.` [.[.[.[.[.[.[.v.                              X  X X",
" X XL L L L L L L L L L L L L L L L C.[.[.[.[.[.[.[.@ o.'.[.[.[.[.[.[.!.R R [.[.[.[.[.[.[.c.                              X  X X",
" X XL L L L L L L L L L L L L L L L D.[.[.[.[.[.[.[.. @ 5.[.[.[.[.[.[.O.@ U [.[.[.[.[.[.[.c.                              &  X X",
" X XL L L L L L L L L L L L L L L L D.[.[.[.[.[.[.[.    @ h.[.[.[.[.5.. @ U [.[.[.[.[.[.[.v.                              w  X X",
" X XL L L L L L L L L L L L L L L L F.[.[.[.[.[.[.[.    @ @ B.[.[.k.@ . o R [.[.[.[.[.[.[.c.                              a  X X",
" X X XL L L L L L L L L L L L L L L D.[.[.[.[.[.[.[.@       e M.c.@ @ @ . T [.[.[.[.[.[.[.v.@                              X X X",
" X X XL L L L L L L L L L L L L L L F.[.[.[.[.[.[.[.@ @                 . U [.[.[.[.[.[.[.c.                            ;  X X X",
" X X XL L L L L L L L L L L L L L L D.[.[.[.[.[.[.[.                      U [.[.[.[.[.[.[.c.                            e  X X X",
" X X X XL L L L L L L L L L L L L u.^.[.[.[.[.[.[.[.#.                  @ i.[.[.[.[.[.[.[.`.-..                       X  X X X X",
" X X X XL L L L L L L L L L L L L !.[.[.[.[.[.[.[.[.H.                    !.[.[.[.[.[.[.[.[.H.@                       w  X X X X",
" X X X XL L L L L L L L L L L L L k.v.v.b.v.v.b.v.v.i.                    8.t.t.u.i.t.u.u.i.,.                        b  X X X X",
" X X X X XL L L L L L L L L L L L a X                                                                               7  X X X X X",
" X X X X X XL L L L L L L L L L L L &                                                                             X  X X X X X X",
" X X X X X XL L L L L L L L L L L L n                                                                             a  X X X X X X",
" X X X X X X XL L L L L L L L L L L L 7                                                                         ,  X X X X X X X",
" X X X X X X X XL L L L L L L L L L L L &                                                                   @ @  X X X X X X X X",
" X X X X X X X XL L L L L L L L L L L L a                                                                   X a  X X X X X X X X",
" X X X X X X X X XL L L L L L L L L L L L ,                                                                 a  X X X X X X X X X",
" X X X X X X X X X XL L L L L L L L L L L n X                                                           X a  X X X X X X X X X X",
" X X X X X X X X X X XL L L L L L L L L L L e X                                                       X a  X X X X X X X X X X X",
" X X X X X X X X X X X XL L L L L L L L L L L &                                                     X h  X X X X X X X X X X X X",
" X X X X X X X X X X X X X XL L L L L L L L L n                                                   ; b  X X X X X X X X X X X X X",
" X X X X X X X X X X X X X X XL L L L L L L L L 7                                             . 7  X X X X X X X X X X X X X X X",
" X X X X X X X X X X X X X X X X XL L L L L L L N @                                       . = b  X X X X X X X X X X X X X X X X",
" X X X X X X X X X X X X X X X X X X XL L L L L P s                                     = k  X X X X X X X X X X X X X X X X X X",
" X X X X X X X X X X X X X X X X X X X X XL L P P D ,                             @ , k  X X X X X X X X X X X X X X X X X X X X",
" X X X X X X X X X X X X X X X X X X X X X X X XL L b .                   X & 7 a  X X X X X X X X X X X X X X X X X X X X X X X",
" X X X X X X X X X X X X X X X X X X X X X X X X X X X Xw 7 , , , 7 7 e  X X X X X X X X X X X X X X X X X X X X X X X X X X X X",
" X X X X X X X X X X X X X X X X X X X X X X X X X X X X X X X X X X X X X X X X X X X X X X X X X X X X X X X X X X X X X X X X"
};
