/* XPM */
static char *_530645935952[] = {
/* columns rows colors chars-per-pixel */
"32 32 106 2 ",
"   c #746F63",
".  c #746F64",
"X  c #757063",
"o  c #757064",
"O  c #767165",
"+  c #777165",
"@  c #767265",
"#  c #777266",
"$  c #787366",
"%  c #787367",
"&  c #797367",
"*  c #797467",
"=  c #7A7468",
"-  c #7B7468",
";  c #7A7568",
":  c #7B766A",
">  c #7D776B",
",  c #7C786A",
"<  c #7D786A",
"1  c #7E786A",
"2  c #7D786D",
"3  c #7E796C",
"4  c #7E786D",
"5  c #7E7A6E",
"6  c #807A6E",
"7  c #827C6F",
"8  c #817C71",
"9  c #827D70",
"0  c #817E72",
"q  c #857F71",
"w  c #858072",
"e  c #848073",
"r  c #858075",
"t  c #878274",
"y  c #858076",
"u  c #858176",
"i  c #888375",
"p  c #898375",
"a  c #898376",
"s  c #8A8475",
"d  c #8A8476",
"f  c #8B8476",
"g  c #8A8477",
"h  c #89857A",
"j  c #89847B",
"k  c #8E887B",
"l  c #8C887D",
"z  c #8F897C",
"x  c #908C81",
"c  c #938D80",
"v  c #959083",
"b  c #969084",
"n  c #969184",
"m  c #969185",
"M  c #979286",
"N  c #969288",
"B  c #9A9589",
"V  c #9E9B91",
"C  c #A19E95",
"Z  c #A3A096",
"A  c #A3A097",
"S  c #A5A095",
"D  c #AAA59B",
"F  c #A8A59C",
"G  c #ABA7A0",
"H  c #AEABA4",
"J  c #B2AEA5",
"K  c #B3B0A7",
"L  c #B4B0A7",
"P  c #C5C2BB",
"I  c #C6C3BC",
"U  c #C9C7C0",
"Y  c #CBC8C2",
"T  c #CECBC6",
"R  c #CFCCC7",
"E  c #D5D3CE",
"W  c #D7D5D0",
"Q  c #D8D6D2",
"!  c #D9D7D2",
"~  c #D9D7D3",
"^  c #DEDCD9",
"/  c #DEDDD9",
"(  c #DFDDD9",
")  c #E7E6E3",
"_  c #E7E6E4",
"`  c #E9E8E6",
"'  c #EBEAE8",
"]  c #ECECEA",
"[  c #EDECEA",
"{  c #EDEDEB",
"}  c #EFEEEC",
"|  c #EFEFED",
" . c #F1F1EF",
".. c #F2F2F1",
"X. c #F3F2F1",
"o. c #F4F3F2",
"O. c #F5F5F4",
"+. c #F6F5F4",
"@. c #F7F7F6",
"#. c #F8F7F6",
"$. c #F9F9F8",
"%. c #FAF9F9",
"&. c #FAFAF9",
"*. c #FDFDFD",
"=. c white",
"-. c None",
/* pixels */
"-.-.-.-.-.-.-.-.-.-.-.-.-.-.-.-.-.-.-.-.-.-.-.-.-.-.-.-.-.-.-.-.",
"-.-.-.-.-.-.-.-.-.-.-.d d d d d d d d d d -.-.-.-.-.-.-.-.-.-.-.",
"-.-.-.-.-.-.-.-.-.d d d d d d d d d d d d d d -.-.-.-.-.-.-.-.-.",
"-.-.-.-.-.-.-.d d d d d d d d d d d d d d d d d d -.-.-.-.-.-.-.",
"-.-.-.-.-.-.d d d d d d d d d d d d d d d d d d d d -.-.-.-.-.-.",
"-.-.-.-.-.d d d d d d d d d d d d d d d d d d d d d d -.-.-.-.-.",
"-.-.-.-.d d d d d d d d d d d d d d d d d d d d d d d d -.-.-.-.",
"-.-.-.h d d d d d d d d d d d d d d d d d d d d d d d d h -.-.-.",
"-.-.-.d d d d d d d d d d d d d d d d d d d d d d d d d d -.-.-.",
"-.-.d d d d d d d d d d d f d d d d d d d d d d d d d h d d -.-.",
"-.-.d d v U W / Q T P J z g d d d d d c L P R Q ( W Y b d d -.-.",
"-.a d d b | =.=.=.=.=.=.%.D d d d d S #.=.=.=.=.=.=._ w d d d -.",
"-.d d d d N %.=.=.=.=.=.=.@.B d d b ..=.=.=.=.=.=.@.y   7 d d -.",
"-.d d d d d G =.=.=.=.=.=.=.` z k ) =.=.=.=.=.=.=.V     @ a d -.",
"-.d d d d d w H %.=.=.=.=.=.=.W E =.=.=.=.=.=.o.C         < d -.",
"-.d d d d d d > 8 ..=.=.=.=.=.=.=.=.=.=.=.=.[ ;             q -.",
"-.d d d d d d d @ ] =.=.=.=.=.=.=.=.=.=.=.=.)               @ -.",
"-.d d d d d d d 6 ] =.=.=./ =.=.=.=.Q =.=.=.)               X -.",
"-.d d d d d d d f | =.=.=.4 ` =.=.) y =.=.=.)               @ -.",
"-.d d d d d d d d [ =.=.=.  j O...y 5 =.=.=.)               ; -.",
"-.d d d d d d d d | =.=.=.    x h   5 =.=.=.)               5 -.",
"-.-.d d d d d d b @.=.=.=.5         z =.=.=...8           X -.-.",
"-.-.d d d d d d L ) ) ) ) Z         F / / / / C           ; -.-.",
"-.-.-.d d d d d y .                                     . -.-.-.",
"-.-.-.d d d d d d 6                                     > -.-.-.",
"-.-.-.-.d d d d d d &                                 * -.-.-.-.",
"-.-.-.-.-.d d d d d w X                             & -.-.-.-.-.",
"-.-.-.-.-.-.d d d d d >                           & -.-.-.-.-.-.",
"-.-.-.-.-.-.-.h d d d d @                       ; -.-.-.-.-.-.-.",
"-.-.-.-.-.-.-.-.-.f d d 8                 @ & -.-.-.-.-.-.-.-.-.",
"-.-.-.-.-.-.-.-.-.-.-.f d *           & < -.-.-.-.-.-.-.-.-.-.-.",
"-.-.-.-.-.-.-.-.-.-.-.-.-.-.-.< -.-.-.-.-.-.-.-.-.-.-.-.-.-.-.-."
};
