/* XPM */
static char *_530645953559[] = {
/* columns rows colors chars-per-pixel */
"128 128 55 1 ",
"  c #746F63",
". c #767164",
"X c #797367",
"o c #7B7669",
"O c #7E796C",
"+ c #817B6E",
"@ c #847E71",
"# c #868173",
"$ c #8A8476",
"% c #8A857A",
"& c #8E897C",
"* c #918C7F",
"= c #948F85",
"- c #969184",
"; c #989286",
": c #979389",
"> c #999489",
", c #9D9990",
"< c #A29D93",
"1 c #A6A197",
"2 c #A7A49A",
"3 c #AAA59C",
"4 c #ABA89F",
"5 c #AAA7A0",
"6 c #AEABA3",
"7 c #B2AFA6",
"8 c #B2AFA9",
"9 c #B5B2AB",
"0 c #B9B5AD",
"q c #BEBBB4",
"w c #C1BDB6",
"e c #C2BFB8",
"r c #C5C2BC",
"t c #C7C5C0",
"y c #C9C6C1",
"u c #CCCAC4",
"i c #CECDC9",
"p c #D1CFC9",
"a c #D5D3CE",
"s c #D7D5D1",
"d c #D9D7D2",
"f c #DCDAD6",
"g c #DEDCD8",
"h c #E0DEDA",
"j c #E3E2DE",
"k c #E6E4E1",
"l c #E8E7E4",
"z c #EAE9E6",
"x c #EEEDEB",
"c c #F0EFEE",
"v c #F1F1EF",
"b c #F6F6F5",
"n c #F8F8F7",
"m c #FFFFFF",
"M c None",
/* pixels */
"MMMMMMMMMMMMMMMMMMMMMMMMMMMMMMMMMMMMMMMMMMMMMMMMMMMMMMMMMMMMMMMMMMMMMMMMMMMMMMMMMMMMMMMMMMMMMMMMMMMMMMMMMMMMMMMMMMMMMMMMMMMMMMMM",
"MMMMMMMMMMMMMMMMMMMMMMMMMMMMMMMMMMMMMMMMMMMMMMMMMMMMMMMMMMMMMMMMMMMMMMMMMMMMMMMMMMMMMMMMMMMMMMMMMMMMMMMMMMMMMMMMMMMMMMMMMMMMMMMM",
"MMMMMMMMMMMMMMMMMMMMMMMMMMMMMMMMMMMMMMMMMMMMMMMMMMMMMMMMMMMMMMMMMMMMMMMMMMMMMMMMMMMMMMMMMMMMMMMMMMMMMMMMMMMMMMMMMMMMMMMMMMMMMMMM",
"MMMMMMMMMMMMMMMMMMMMMMMMMMMMMMMMMMMMMMMMMMMMMMMMMMMMMM$$$$$$$$$$$$$$$$$$$$MMMMMMMMMMMMMMMMMMMMMMMMMMMMMMMMMMMMMMMMMMMMMMMMMMMMMM",
"MMMMMMMMMMMMMMMMMMMMMMMMMMMMMMMMMMMMMMMMMMMMMMMMM$$$$$$$$$$$$$$$$$$$$$$$$$$$$$$MMMMMMMMMMMMMMMMMMMMMMMMMMMMMMMMMMMMMMMMMMMMMMMMM",
"MMMMMMMMMMMMMMMMMMMMMMMMMMMMMMMMMMMMMMMMMMMMMM$$$$$$$$$$$$$$$$$$$$$$$$$$$$$$$$$$$$MMMMMMMMMMMMMMMMMMMMMMMMMMMMMMMMMMMMMMMMMMMMMM",
"MMMMMMMMMMMMMMMMMMMMMMMMMMMMMMMMMMMMMMMMMMM$$$$$$$$$$$$$$$$$$$$$$$$$$$$$$$$$$$$$$$$$$MMMMMMMMMMMMMMMMMMMMMMMMMMMMMMMMMMMMMMMMMMM",
"MMMMMMMMMMMMMMMMMMMMMMMMMMMMMMMMMMMMMMMM$$$$$$$$$$$$$$$$$$$$$$$$$$$$$$$$$$$$$$$$$$$$$$$$MMMMMMMMMMMMMMMMMMMMMMMMMMMMMMMMMMMMMMMM",
"MMMMMMMMMMMMMMMMMMMMMMMMMMMMMMMMMMMMMM$$$$$$$$$$$$$$$$$$$$$$$$$$$$$$$$$$$$$$$$$$$$$$$$$$$$MMMMMMMMMMMMMMMMMMMMMMMMMMMMMMMMMMMMMM",
"MMMMMMMMMMMMMMMMMMMMMMMMMMMMMMMMMMMM$$$$%$$$$$$$$$$$$$$$$$$$$$$$$$$$$$$$$$$$$$$$$$$$$$$$$$$&MMMMMMMMMMMMMMMMMMMMMMMMMMMMMMMMMMMM",
"MMMMMMMMMMMMMMMMMMMMMMMMMMMMMMMMMM$$$$$$$$$$$$$$$$$$$$$$$$$$$$$$$$$$$$$$$$$$$$$$$$$$$$$$$$$$$$MMMMMMMMMMMMMMMMMMMMMMMMMMMMMMMMMM",
"MMMMMMMMMMMMMMMMMMMMMMMMMMMMMMMM$$$$$$$$$$$$$$$$$$$$$$$$$$$$$$$$$$$$$$$$$$$$$$$$$$$$$$$$$$$$$$$$MMMMMMMMMMMMMMMMMMMMMMMMMMMMMMMM",
"MMMMMMMMMMMMMMMMMMMMMMMMMMMMMMM$$$$$$$$$$$$$$$$$$$$$$$$$$$$$$$$$$$$$$$$$%$$$$$$$$$$$$$$$$$$$$$$$$MMMMMMMMMMMMMMMMMMMMMMMMMMMMMMM",
"MMMMMMMMMMMMMMMMMMMMMMMMMMMMM$$$$$$$$$$$$$$$$$$$$$$$$$$$$$$$$$$$$$$$$$$$$$$$$$$$$$$$$$$$$$$$$$$$$$$MMMMMMMMMMMMMMMMMMMMMMMMMMMMM",
"MMMMMMMMMMMMMMMMMMMMMMMMMMMM$$$$$$$$$$$$$$$$$$$$$$$$$$$$$$$$$$$$$$$$$$$$$$$$$$$$$$$$$$$$$$$$$$$$$$$$MMMMMMMMMMMMMMMMMMMMMMMMMMMM",
"MMMMMMMMMMMMMMMMMMMMMMMMMMM$$$$$$$$$$$$$$$$$$$$$$$$$$$$$$$$$$$$$$$$$$$$$$$$$$$$$$$$$$$$$$$$$$$$$$$$$$$MMMMMMMMMMMMMMMMMMMMMMMMMM",
"MMMMMMMMMMMMMMMMMMMMMMMMM$$$$$$$$$$$$$$$$$$$$$$$$$$$$$$$$$$$$$$$$$$$$$$$%$$$$$$$$$$$$$$$$$$$$$$$$$$$$$$MMMMMMMMMMMMMMMMMMMMMMMMM",
"MMMMMMMMMMMMMMMMMMMMMMMM$$$$$$$$$$$$$$$$$$$$$$$$$$$$$$$$$$$$$$$$$$$$$$$$$$$$$$$$$$$$$$$$$$$$$$$$$$$$$$$$MMMMMMMMMMMMMMMMMMMMMMMM",
"MMMMMMMMMMMMMMMMMMMMMMM$$$$$$$$$$$$$$$$$$$$$$$$$$$$$$$$$$$$$$$$$$$$$$$$$$$$$$$$$$$$$$$$$$$$$$$$$$$$$$$$$$MMMMMMMMMMMMMMMMMMMMMMM",
"MMMMMMMMMMMMMMMMMMMMMM$$$$$$$$$$$$$$$$$$$$$$$$$$$$$$$$$$$$$$$$$$$$$$$$$$$$$$$$$$$$$$$$$$$$$$$$$$$$$$$$$$$$MMMMMMMMMMMMMMMMMMMMMM",
"MMMMMMMMMMMMMMMMMMMMM$$$$$$$$$$$$$$$$$$$$$$$$$$$$$$$$$$$$$$$$$$$$$$$$$$$$$$$$$$$$$$$$$$$$$$$$$$$$$$$$$$$$$$MMMMMMMMMMMMMMMMMMMMM",
"MMMMMMMMMMMMMMMMMMMM$$$$$$$$$$$$$$$$$$$$$$$$$$$$$$$$$$$$$$$$$$$$$$$$$$$$$$$$$$$$$$$$$$$$$$$$$$$$$$$$$$$$$$$$MMMMMMMMMMMMMMMMMMMM",
"MMMMMMMMMMMMMMMMMMM$$$$$$$$$$$$$$$$$$$$$$$$$$$$$$$$$$$$$$$$$$$$$$$$$$$$$$$$$$$$$$$$$$$$$$$$$$$$$$$$$$$$$$$$$$MMMMMMMMMMMMMMMMMMM",
"MMMMMMMMMMMMMMMMMM$$$$$$$$$$$$$$$$$$$$$$$$$$$$$$$$$$$$$$$$$$$$$$$$$$$$$$$$$$$$$$$$$$$$$$$$$$$$$$$$$$$$$$$$$$$$MMMMMMMMMMMMMMMMMM",
"MMMMMMMMMMMMMMMMM$$$$$$$$$$$$$$$$$$$$$$$$$$$$$$$$$$$$$$$$$$$$$$$$$$$$$$$$$$$$$$$$$$$$$$$$$$$$$$$$$$$$$$$$$$$$$$MMMMMMMMMMMMMMMMM",
"MMMMMMMMMMMMMMMM$$$$$$$$$$$$$$$$$$$$$$$$$$$$$$$$$$$$$$$$$$$$$$$$$$$$$$$$$$$$$$$$$$$$$$$$$$%$$$$$$$$$$$$$$$$$$$$$MMMMMMMMMMMMMMMM",
"MMMMMMMMMMMMMMMM$$$$$$$$$$$$$$$$$$$$$$$$$$$$$$$$$$$$$$$$$$$$$$$$$$$$$$$$$$$$$$$$$$$$$$$$$$$$$$$$$$$$$$$$$$$$$$$$MMMMMMMMMMMMMMMM",
"MMMMMMMMMMMMMMM$$$$$$$$$$$$$$$$$$$$$$$$$$$$$$$$$$$$$$$$$$$$$$$$$$$$$$$$$$$$$$$$$$$$$$$$$$$$$$$$$$$$$$$$$$$$$$$$$$MMMMMMMMMMMMMMM",
"MMMMMMMMMMMMMM$$$$$$$$$$$$$$$$$$$$$$$$$$$$$$$$$$$$$$$$$$$$$$$$$$$$$$$$$$$$$$$$$$$$$$$$$$$$$$$$$$$$$$$$$$$$$$$$$$$$MMMMMMMMMMMMMM",
"MMMMMMMMMMMMM$$$$$$$$$$$$$$$$$$$$$$$$$$$$$$$$$$$$$$$$$$$$$$$$$$$$%$$$$$$$$$$$$$$$$$$$$$$$$$$$$$$$$$$$$$$$$$$$$$$$$$MMMMMMMMMMMMM",
"MMMMMMMMMMMMM$$$$$$$$$$$$$$$$$$$$$$$$$$$$$$$$$$$$$$$$$$$$$$$$$$$$$$$$$$$$$$$$$$$$$$$$$$$$$$$$$$$$$$$$$$$$$$$$$$$$$$MMMMMMMMMMMMM",
"MMMMMMMMMMMM$$$$$$$$$$$$$$$$$$$$$$$$$$$$$$$$$$$$$$$$$$$$$$$$$$$$$$$$$$$$$$$$$$$$$$$$$$$$$$$$$$$$$$$$$$$$$$$$$$$$$$$$MMMMMMMMMMMM",
"MMMMMMMMMMM%$$$$$$$$$$$$$$$$$$$$$$$$$$$$$$$$$$$$$$$$$$$$$$$$$$$$$$$$$$$$$$$$$$$$$$$$$$$$$$$$$$$$$$$$$$$$$$$$$$$$$$$$$MMMMMMMMMMM",
"MMMMMMMMMMM$$$$$$$$$$$$$$$$$$$$$$$$$$$$$$$$$$$$$$$$$$$$$$$$$$$$$$$$$$$$$$$$$$$$$$$$$$$$$$$$$$$$$$$$$$$$$$$$$$$$$$$$$$MMMMMMMMMMM",
"MMMMMMMMMM$$$$$$$$$$$$$$$$$$$$$$$$$$$$$$$$$$$$$$$$$$$$$$$$$$$$$$$$$$$$$$$$$$$$$$$$$$$$$$$$$$$$$$$$$$$$$$$$$$$$$$$$$$$$MMMMMMMMMM",
"MMMMMMMMMM$$$$$$$$$$$$$$$$$$$$$$$$$$$$$$$$$$$$$$$$$$$$$$$$$$$$$$$$$$$$$$$$$$$$$$$$$$$$$$$$$$$$$$$$$$$$%$$$$$$$$$$$$$$$MMMMMMMMMM",
"MMMMMMMMM$$$$$$$$$$$$$$$$$$$$$$$$$$$$$$$$$$$$$$$$$$$$$$$$$$$$$$$$$$$$$$$$$$$$$$$$$$$$$$$$$$$$$$$$$$$$$$$$$$$$$$$$$$$$$$MMMMMMMMM",
"MMMMMMMMM$$$$$$$$$$$$$$$$$$$$$$$$$$$$$$$$$$$$$$$$$$$$$$$$$$$$$$$$$$$$$$$$$$$$$$$$$$$$$$$$$$$$$$$$$$$$$$$$$$$$$$$$$$$$$$MMMMMMMMM",
"MMMMMMMM$$$$$$$$$$$$$$$$$$$$$$$$$$$$$$$$$$$$$$$$$$$$$$$$$$$$$$$$$$$$$$$$$$$$$$$$$$$$$$$$$$$$$$$$$$$$$$$$$$$$$$$$$$$$$$$$MMMMMMMM",
"MMMMMMMM$$$$$$$$$$$$$$$$$$$$$$$$$$$$$$$$$$$$$$$$$$$$$$$$$$$$$$$$$$$$$$$$$$$$$$$$$$$$$$$$$$$$$$$$$$$$$$$$$$$$$$$$$$$$$$$$MMMMMMMM",
"MMMMMMM$$$$$$$$$$$$$$$$$$$$$$$$$$$$$$$$$$$$$$$$$$$$$$$$$$$$$$$$$$$$$$$$$$$$$$$$$$$$$$$$$$$$$$$$$$$$$$$$$$$$$$$$$$$$$$$$$$MMMMMMM",
"MMMMMMM$$$$$$$$$$$$$$>7risklxxbbvzkhgsuw71=$$$$$$$$$$$$$$$$$$$$$$$$$$$$$$$$$$$$$$$$$$>30rishjkxxbbvvkkgpr0>$$$$$$$$$$$$$$MMMMMMM",
"MMMMMMM$$$$$$$$$$$$qcmmmmmmmmmmmmmmmmmmmmmmbjr7*$$$$$$$$$$$$$$$$$$$$$$$$$$$$$$$$;0pzmmmmmmmmmmmmmmmmmmmmmmmvi&$$$$$$$$$$$MMMMMMM",
"MMMMMM$$$$$$$$$$$$1mmmmmmmmmmmmmmmmmmmmmmmmmmmmmjq*$$$$$$$$$$$$$$$$$$$$$$$$$$*wlmmmmmmmmmmmmmmmmmmmmmmmmmmmmm2$$$$$$$$$$$$MMMMMM",
"MMMMMM$$$$$$$$$$$$,mmmmmmmmmmmmmmmmmmmmmmmmmmmmmmmnr$$$$$$$$$$$$$$$$$$$$$$$$7bmmmmmmmmmmmmmmmmmmmmmmmmmmmmmmzO$$$$$$$$$$$$MMMMMM",
"MMMMMM$$$$$$$$$$$$$ummmmmmmmmmmmmmmmmmmmmmmmmmmmmmmma$$$$$$$$$$$$$$$$$$$$$$0mmmmmmmmmmmmmmmmmmmmmmmmmmmmmmmb= O$$$$$$$$$$$MMMMMM",
"MMMMM$$$$$$$$$$$$$$$qmmmmmmmmmmmmmmmmmmmmmmmmmmmmmmmmw$$$$$$$$$$$$$$$$$$$$<mmmmmmmmmmmmmmmmmmmmmmmmmmmmmmmx#   #$$$$$$$$$$$MMMMM",
"MMMMM$$$$$$$$$$$$$$$@rmmmmmmmmmmmmmmmmmmmmmmmmmmmmmmmm3$$$$$$$$$$$$$$$$$$-bmmmmmmmmmmmmmmmmmmmmmmmmmmmmmmx#.   X$$$$$$$$$$$MMMMM",
"MMMMM$$$$$$$$$$$$$$$$osmmmmmmmmmmmmmmmmmmmmmmmmmmmmmmmb>$$$$$$$$$$$$$$$$&kmmmmmmmmmmmmmmmmmmmmmmmmmmmmmmn=      +$$$$$$$$$$MMMMM",
"MMMM$$$$$$$$$$$$$$$$$$olmmmmmmmmmmmmmmmmmmmmmmmmmmmmmmmz*$$$$$$$$$$$$$$$smmmmmmmmmmmmmmmmmmmmmmmmmmmmmmm2       .#$$$$$$$$$$MMMM",
"MMMM%$$$$$$$$$$$$$$$$$+%nmmmmmmmmmmmmmmmmmmmmmmmmmmmmmmma$$$$$$$$$$$$$$wmmmmmmmmmmmmmmmmmmmmmmmmmmmmmmmr         o$$$$$$$$$$MMMM",
"MMMM$$$$$$$$$$$$$$$$$$$X5mmmmmmmmmmmmmmmmmmmmmmmmmmmmmmmmq$$$$$$$$$$$$3mmmmmmmmmmmmmmmmmmmmmmmmmmmmmmmxo         .@$$$$$$$$$MMMM",
"MMMM$$$$$$$$$$$$$$$$$$$@ immmmmmmmmmmmmmmmmmmmmmmmmmmmmmmm3$$$$$$$$$$,nmmmmmmmmmmmmmmmmmmmmmmmmmmmmmmm-           .$$$$$$$$$MMMM",
"MMMM$$$$$$$$$$$$$$$$$$$$oOxmmmmmmmmmmmmmmmmmmmmmmmmmmmmmmmb-$$$$$$$$*xmmmmmmmmmmmmmmmmmmmmmmmmmmmmmmmq            .o$$$$$$$$MMMM",
"MMM$$$$$$$$$$$$$$$$$$$$$#.=mmmmmmmmmmmmmmmmmmmmmmmmmmmmmmmmk*$$$$$$%gmmmmmmmmmmmmmmmmmmmmmmmmmmmmmmmhX              @$$$$$$$$MMM",
"MMM$$$$$$$$$$$$$$$$$$$$$$+ 5mmmmmmmmmmmmmmmmmmmmmmmmmmmmmmmma$$$$$$ymmmmmmmmmmmmmmmmmmmmmmmmmmmmmmml@               X$$$$$$$$MMM",
"MMM$$$$$$$$$$$$$$$$$$$$$$$o 8mmmmmmmmmmmmmmmmmmmmmmmmmmmmmmmm0$$$$9mmmmmmmmmmmmmmmmmmmmmmmmmmmmmmmz@                 +$$$$$$$MMM",
"MMM$$$$$$$$$$$$$$$$$$$$$$$#. 5nmmmmmmmmmmmmmmmmmmmmmmmmmmmmmmm1$$<nmmmmmmmmmmmmmmmmmmmmmmmmmmmmmmsO                   $$$$$$$MMM",
"MMM$$$$$$$$$$$$$$$$$$$$$$$$O  -zmmmmmmmmmmmmmmmmmmmmmmmmmmmmmmb--bmmmmmmmmmmmmmmmmmmmmmmmmmmmmmn7.                    o$$$$$$MMM",
"MMM$$$$$$$$$$$$$$$$$$$$$$$$$.  oqnmmmmmmmmmmmmmmmmmmmmmmmmmmmmmkjmmmmmmmmmmmmmmmmmmmmmmmmmmmmmy#                       +$$$$$MMM",
"MMM$$$$$$$$$$$$$$$$$$$$$$$$$@.   @rbmmmmmmmmmmmmmmmmmmmmmmmmmmmmmmmmmmmmmmmmmmmmmmmmmmmmmmmbu&                         .$$$$$MMM",
"MMM$$$$$$$$$$$$$$$$$$$$$$$$$$o     otmmmmmmmmmmmmmmmmmmmmmmmmmmmmmmmmmmmmmmmmmmmmmmmmmmmmmm:.                           o$$$$MMM",
"MMM$$$$$$$$$$$$$$$$$$$$$$$$$$$.     9mmmmmmmmmmmmmmmmmmmmmmmmmmmmmmmmmmmmmmmmmmmmmmmmmmmmmm=                            .@$$$MMM",
"MMM$$$$$$$$$$$$$$$$$$$$$$$$$$$+     9mmmmmmmmmmmmmmmmmmmmmmmmmmmmmmmmmmmmmmmmmmmmmmmmmmmmmm=                             X$$$MMM",
"MMM$$$$$$$$$$$$$$$$$$$$$$$$$$$$o    9mmmmmmmmmmmmmmmmmmmmmmmmmmmmmmmmmmmmmmmmmmmmmmmmmmmmmm=                              +$$MMM",
"MMM$$$$$$$$$$$$$$$$$$$$$$$$$$$$#.   9mmmmmmmmmmmmmmmmmmmmmmmmmmmmmmmmmmmmmmmmmmmmmmmmmmmmmm=                               #$MMM",
"MMM$$$$$$$$$$$$$$$$$$$$$$$$$$$$$O   9mmmmmmmmmmmmmmmmmmmmmmmmmmmmmmmmmmmmmmmmmmmmmmmmmmmmmm=                               o$MMM",
"MMM$$$$$$$$$$$$$$$$$$$$$$$$$$$$$$.  9mmmmmmmmmmmmmmmmmmmmmmmmmmmmmmmmmmmmmmmmmmmmmmmmmmmmmm=                                +MMM",
"MMM$$$$$$$$$$$$$$$$$$$$$$$$$$$$$$@  9mmmmmmmmmmmmmmmmmmmmmmmmmmmmmmmmmmmmmmbmmmmmmmmmmmmmmm=                                +MMM",
"MMM$$$$$$$$$$$$$$$$$$$$$$$$$$$$$$$o 9mmmmmmmmmmmmmmm9mmmmmmmmmmmmmmmmmmmmmx4mmmmmmmmmmmmmmm=                                +MMM",
"MMM$$$$$$$$$$$$$$$$$$$$$$$$$$$$$$$#.9mmmmmmmmmmmmmmm ymmmmmmmmmmmmmmmmmmmn=,mmmmmmmmmmmmmmm=                                @MMM",
"MMM$$$$$$$$$$$$$$$$$$$$$$$$$$$$$$$$+9mmmmmmmmmmmmmmm..fmmmmmmmmmmmmmmmmmm2 ,mmmmmmmmmmmmmmm=                                $MMM",
"MMM$$$$$$$$$$$$$$$$$$$$$$$$$$$$$$$$$0mmmmmmmmmmmmmmm  Ozmmmmmmmmmmmmmmmmq  ,mmmmmmmmmmmmmmm=                                $MMM",
"MMM$$$$$$$$$$$$$$$$$$$$$$$$$$$$$$$$$qmmmmmmmmmmmmmmm   %bmmmmmmmmmmmmmms.  ,mmmmmmmmmmmmmmm=                               .$MMM",
"MMMM$$$$$$$$$$$$$$$$$$$$$$$$$$$$$$$$wmmmmmmmmmmmmmmm    >mmmmmmmmmmmmmzO   ,mmmmmmmmmmmmmmm=                               oMMMM",
"MMMM$$$$$$$$$$$$$$$$$$$$$$$$$$$$$$$$wmmmmmmmmmmmmmmm    .6mmmmmmmmmmmb$    ,mmmmmmmmmmmmmmm=                               OMMMM",
"MMMM$$$$$$$$$$$$$$$$$$$$$$$$$$$$$$$$wmmmmmmmmmmmmmmm      rmmmmmmmmmn>.    ,mmmmmmmmmmmmmmm=                               +MMMM",
"MMMM$$$$$$$$$$$$$$$$$$$$$$$$$$$$$$$$wmmmmmmmmmmmmmmm      .ammmmmmmm7 .    ,mmmmmmmmmmmmmmm=                               $MMMM",
"MMMM$$$$$$$$$$$$$$$$$$$$$$$$$$$$$$$$wmmmmmmmmmmmmmmm       okmmmmmmr       ,mmmmmmmmmmmmmmm=                              .$MMMM",
"MMMMM$$$$$$$$$$$$$$$$$$$$$$$$$$$$$$$wmmmmmmmmmmmmmmm        #bmmmmg.       ,mmmmmmmmmmmmmmm=                              oMMMMM",
"MMMMM$$$$$$$$$$$$$$$$$$$$$$$$$$$$$$$wmmmmmmmmmmmmmmm         :nmmzO        ,mmmmmmmmmmmmmmm=                              +MMMMM",
"MMMMM$$$$$$$$$$$$$$$$$$$$$$$$$$$$$$$wmmmmmmmmmmmmmmm          =re@         ,mmmmmmmmmmmmmmm=                              $MMMMM",
"MMMMMM$$$$$$$$$$$$$$$$$$$$$$$$$$$$$$wmmmmmmmmmmmmmmm                       ,mmmmmmmmmmmmmmm=                             oMMMMMM",
"MMMMMM$$$$$$$$$$$$$$$$$$$$$$$$$$$$$$wmmmmmmmmmmmmmmm                       ,mmmmmmmmmmmmmmm=                             +MMMMMM",
"MMMMMM$$$$$$$$$$$$$$$$$$$$$$$$$$$$$$wmmmmmmmmmmmmmmm                       ,mmmmmmmmmmmmmmm=                             #MMMMMM",
"MMMMMMM$$$$$$$$$$$$$$$$$$$$$$$$$$$$$wmmmmmmmmmmmmmmm                       ,mmmmmmmmmmmmmmm=                            oMMMMMMM",
"MMMMMMM$$$$$$$$$$$$$$$$$$$$$$$$$$$$9kmmmmmmmmmmmmmmm#                      qmmmmmmmmmmmmmmmk<                           +MMMMMMM",
"MMMMMMM$$$$$$$$$$$$$$$$$$$$$$$$$$$rmmmmmmmmmmmmmmmmmb%                   .qmmmmmmmmmmmmmmmmmm,                         X$MMMMMMM",
"MMMMMMMM$$$$$$$$$$$$$$$$$$$$$$$$$$zmmmmmmmmmmmmmmmmmmr                    zmmmmmmmmmmmmmmmmmmy.                        +MMMMMMMM",
"MMMMMMMM$$$$$$$$$$$$$$$$$$$$$$$$$$xmmmmmmmmmmmmmmmmmmu                    xmmmmmmmmmmmmmmmmmmu                         $MMMMMMMM",
"MMMMMMMMM$$$$$$$$$$$$$$$$$$$$$$$$$vmmmmmmmmmmmmmmmmmmu.                   zbbnnbbbbnbbbbbbbnby                        oMMMMMMMMM",
"MMMMMMMMM$$$$$$$$$$$$$$$$$$$$$$$$$-:>>:>>>:>:>:>>:>>>$                    XXXXXXoXXXXXoXoXXXX.                        $MMMMMMMMM",
"MMMMMMMMMM$$$$$$$$$$$$$$$$$$$$$$$$#.        .                                                                        OMMMMMMMMMM",
"MMMMMMMMMM%$$$$$$$$$$$$$$$$$$$$$$$$o                                                                                 $MMMMMMMMMM",
"MMMMMMMMMMM$$$$$$$$$$$$$$$$$$$$$$$$$.                                                                               +MMMMMMMMMMM",
"MMMMMMMMMMM$$$$$$$$$$$$$$$$$$$$$$$$$+                                                                              X$MMMMMMMMMMM",
"MMMMMMMMMMMM$$$$$$$$$$$$$$$$$$$$$$$$$X                                                                             #MMMMMMMMMMMM",
"MMMMMMMMMMMMM$$$$$$$$$$$$$$$$$$$$$$$$$                                                                            OMMMMMMMMMMMMM",
"MMMMMMMMMMMMM$$$$$$$$$$$$$$$$$$$$$$$$$O                                                                          .$MMMMMMMMMMMMM",
"MMMMMMMMMMMMMM$$$$$$$$$$$$$$$$$$$$$$$$$.                                                                         #MMMMMMMMMMMMMM",
"MMMMMMMMMMMMMMM$$$$$$$$$$$$$$$$$$$$$$$$@                                                                        +MMMMMMMMMMMMMMM",
"MMMMMMMMMMMMMMMM$$$$$$$$$$$$$$$$$$$$$$$$o                                                                      oMMMMMMMMMMMMMMMM",
"MMMMMMMMMMMMMMMM%$$$$$$$$$$$$$$$$$$$$$$$$.                                                                    X$MMMMMMMMMMMMMMMM",
"MMMMMMMMMMMMMMMMM$$$$$$$$$$$$$$$$$$$$$$$$+                                                                   .#MMMMMMMMMMMMMMMMM",
"MMMMMMMMMMMMMMMMMM$$$$$$$$$$$$$$$$$$$$$$$$X                                                                 .@MMMMMMMMMMMMMMMMMM",
"MMMMMMMMMMMMMMMMMMM$$$$$$$$$$$$$$$$$$$$$$$$.                                                                @MMMMMMMMMMMMMMMMMMM",
"MMMMMMMMMMMMMMMMMMMM$$$$$$$$$$$$$$$$$$$$$$$o                                                              .+MMMMMMMMMMMMMMMMMMMM",
"MMMMMMMMMMMMMMMMMMMMM$$$$$$$$$$$$$$$$$$$$$$$X                                                            .@MMMMMMMMMMMMMMMMMMMMM",
"MMMMMMMMMMMMMMMMMMMMMM$$$$$$$$$$$$$$$$$$$$$$@                                                           .+MMMMMMMMMMMMMMMMMMMMMM",
"MMMMMMMMMMMMMMMMMMMMMMM$$$$$$$$$$$$$$$$$$$$$$X                                                          @MMMMMMMMMMMMMMMMMMMMMMM",
"MMMMMMMMMMMMMMMMMMMMMMMM$$$$$$$$$$$$$$$$$$$$$$.                                                       X#MMMMMMMMMMMMMMMMMMMMMMMM",
"MMMMMMMMMMMMMMMMMMMMMMMMM$$$$$$$$$$$$$$$$$$$$$+                                                      X#MMMMMMMMMMMMMMMMMMMMMMMMM",
"MMMMMMMMMMMMMMMMMMMMMMMMMMM$$$$$$$$$$$$$$$$$$$$o                                                    o$MMMMMMMMMMMMMMMMMMMMMMMMMM",
"MMMMMMMMMMMMMMMMMMMMMMMMMMMM$$$$$$$$$$$$$$$$$$$@                                                  X@MMMMMMMMMMMMMMMMMMMMMMMMMMMM",
"MMMMMMMMMMMMMMMMMMMMMMMMMMMMM%$$$$$$$$$$$$$$$$$$O                                                X#MMMMMMMMMMMMMMMMMMMMMMMMMMMMM",
"MMMMMMMMMMMMMMMMMMMMMMMMMMMMMMM$$$$$$$$$$$$$$$$$$.                                             .+MMMMMMMMMMMMMMMMMMMMMMMMMMMMMMM",
"MMMMMMMMMMMMMMMMMMMMMMMMMMMMMMMM$$$$$$$$$$$$$$$$$+.                                           O#MMMMMMMMMMMMMMMMMMMMMMMMMMMMMMMM",
"MMMMMMMMMMMMMMMMMMMMMMMMMMMMMMMMMM$$$$$$$$$$$$$$$$o                                        .o@MMMMMMMMMMMMMMMMMMMMMMMMMMMMMMMMMM",
"MMMMMMMMMMMMMMMMMMMMMMMMMMMMMMMMMMMM$$$$$$$$$$$$$$#.                                      X+MMMMMMMMMMMMMMMMMMMMMMMMMMMMMMMMMMMM",
"MMMMMMMMMMMMMMMMMMMMMMMMMMMMMMMMMMMMMM$$$$$$$$$$$$$+                                    X@MMMMMMMMMMMMMMMMMMMMMMMMMMMMMMMMMMMMMM",
"MMMMMMMMMMMMMMMMMMMMMMMMMMMMMMMMMMMMMMMM$$$$$$$$$$$$X                                 o#MMMMMMMMMMMMMMMMMMMMMMMMMMMMMMMMMMMMMMMM",
"MMMMMMMMMMMMMMMMMMMMMMMMMMMMMMMMMMMMMMMMMMM$$$$$$$$$@                              X+MMMMMMMMMMMMMMMMMMMMMMMMMMMMMMMMMMMMMMMMMMM",
"MMMMMMMMMMMMMMMMMMMMMMMMMMMMMMMMMMMMMMMMMMMMMM$$$$$$$o                       . .oO#MMMMMMMMMMMMMMMMMMMMMMMMMMMMMMMMMMMMMMMMMMMMM",
"MMMMMMMMMMMMMMMMMMMMMMMMMMMMMMMMMMMMMMMMMMMMMMMMM$$$$$X                .   ..o+MMMMMMMMMMMMMMMMMMMMMMMMMMMMMMMMMMMMMMMMMMMMMMMMM",
"MMMMMMMMMMMMMMMMMMMMMMMMMMMMMMMMMMMMMMMMMMMMMMMMMMMMMM+oX.     .     ..oo+@MMMMMMMMMMMMMMMMMMMMMMMMMMMMMMMMMMMMMMMMMMMMMMMMMMMMM",
"MMMMMMMMMMMMMMMMMMMMMMMMMMMMMMMMMMMMMMMMMMMMMMMMMMMMMMMMMMMMMMMoOMMMMMMMMMMMMMMMMMMMMMMMMMMMMMMMMMMMMMMMMMMMMMMMMMMMMMMMMMMMMMMM",
"MMMMMMMMMMMMMMMMMMMMMMMMMMMMMMMMMMMMMMMMMMMMMMMMMMMMMMMMMMMMMMMMMMMMMMMMMMMMMMMMMMMMMMMMMMMMMMMMMMMMMMMMMMMMMMMMMMMMMMMMMMMMMMMM",
"MMMMMMMMMMMMMMMMMMMMMMMMMMMMMMMMMMMMMMMMMMMMMMMMMMMMMMMMMMMMMMMMMMMMMMMMMMMMMMMMMMMMMMMMMMMMMMMMMMMMMMMMMMMMMMMMMMMMMMMMMMMMMMMM"
};
