/* XPM */
static char *_530645923115[] = {
/* columns rows colors chars-per-pixel */
"16 16 65 1 ",
"  c #746F63",
". c #757063",
"X c #757064",
"o c #767165",
"O c #787367",
"+ c #7A7367",
"@ c #797469",
"# c #7A7468",
"$ c #7B7469",
"% c #7A7569",
"& c #7A7668",
"* c #7A766A",
"= c #7D776A",
"- c #7C796B",
"; c #7D786C",
": c #7D796D",
"> c #807A6E",
", c #827D6F",
"< c #837D70",
"1 c #888174",
"2 c #888275",
"3 c #8A8575",
"4 c #8A8476",
"5 c #8B8476",
"6 c #8A8477",
"7 c #8A8577",
"8 c #8A8679",
"9 c #8F887C",
"0 c #9F9B92",
"q c #A09B93",
"w c #A19E94",
"e c #A6A196",
"r c #A7A298",
"t c #A7A49A",
"y c #AFABA1",
"u c #B0ACA3",
"i c #B1AEA6",
"p c #B2AFA7",
"a c #B3B0A9",
"s c #B6B3AB",
"d c #B8B5AD",
"f c #BBB7AF",
"g c #C0BEB7",
"h c #C2BEB7",
"j c #C1BEB8",
"k c #C5C2BC",
"l c #C6C4BE",
"z c #D9D7D3",
"x c #D9D8D4",
"c c #DBD9D5",
"v c #DBDAD7",
"b c #DCDBD7",
"n c #DEDDD9",
"m c #E5E4E1",
"M c #E8E7E5",
"N c #EAE9E6",
"B c #EBEAE8",
"V c #EDECEA",
"C c #F5F4F3",
"Z c #F6F5F4",
"A c #F7F7F6",
"S c gray99",
"D c #FDFCFC",
"F c white",
"G c None",
/* pixels */
"GGGGGGG48GGGGGGG",
"GGGG44444444GGGG",
"GGG4444444444GGG",
"GG444444444444GG",
"G44444444444444G",
"G4dBMby44ynNVs4G",
"G49MFFFeeSFFm*<G",
"4448vFFCCFFx: X4",
"5444aFZFFZFi   -",
"G444dFgvzkFi   :",
"G444hFj*@kFs  .G",
"G544tiq  wi0  *G",
"GG444        XGG",
"GGG44>       GGG",
"GGGG44X    +GGGG",
"GGGGGG<#==GGGGGG"
};
